<svg width="512" height="512" viewBox="0 0 512 512" fill="none" xmlns="http://www.w3.org/2000/svg">
<g clip-path="url(#clip0_1623_10)">
<path d="M215.1 476.3C190.1 449.9 159.6 408.7 142.2 352H53.6C83.9 415.8 143.6 463.1 215.1 476.3ZM217.5 429.8C231.5 448.3 245.4 462.2 256 471.4C266.5 462.1 280.5 448.3 294.5 429.8C309.9 409.5 325.2 383.7 336.2 352.1H175.8C186.8 383.7 202.1 409.5 217.5 429.8ZM160 256C160 279.1 162.5 300.5 166.8 320H345.2C349.5 300.5 352 279.1 352 256C352 232.9 349.5 211.5 345.2 192H166.8C162.5 211.5 160 232.9 160 256ZM134.1 192H41.3C35.3 212.3 32 233.8 32 256C32 278.2 35.2 299.7 41.3 320H134.1C130.2 300.2 128 278.9 128 256C128 233.1 130.2 211.8 134.1 192ZM175.8 160H336.2C325.2 128.4 309.9 102.6 294.5 82.3C280.5 63.8 266.6 49.9 256 40.7C245.5 50 231.5 63.8 217.5 82.3C202.1 102.6 186.8 128.4 175.8 160ZM377.9 192C381.8 211.8 384 233.1 384 256C384 278.9 381.8 300.2 377.9 320H470.7C476.7 299.7 480 278.2 480 256C480 233.8 476.8 212.3 470.7 192H377.9ZM458.5 160C428.2 96.2 368.5 48.9 297 35.7C322 62.1 352.5 103.3 369.9 160H458.5ZM142.2 160C159.7 103.4 190.1 62.1 215.1 35.7C143.5 48.9 83.9 96.2 53.6 160H142.2ZM296.9 476.3C368.5 463.1 428.1 415.9 458.4 352H369.8C352.3 408.6 321.9 449.9 296.9 476.3ZM256 512C188.105 512 122.99 485.029 74.9807 437.019C26.9714 389.01 0 323.895 0 256C0 188.105 26.9714 122.99 74.9807 74.9807C122.99 26.9714 188.105 0 256 0C323.895 0 389.01 26.9714 437.019 74.9807C485.029 122.99 512 188.105 512 256C512 323.895 485.029 389.01 437.019 437.019C389.01 485.029 323.895 512 256 512Z" fill="white"/>
</g>
<defs>
<clipPath id="clip0_1623_10">
<rect width="512" height="512" fill="white"/>
</clipPath>
</defs>
</svg>
